<svg width="21" height="20" viewBox="0 0 21 20" fill="none" xmlns="http://www.w3.org/2000/svg">
<path d="M10.5257 16.7257C11.4745 16.7257 12.3411 16.6249 13.1314 16.4507L11.3692 14.7312C11.0954 14.7517 10.8176 14.7684 10.5257 14.7684C5.15871 14.7684 3.07952 11.0044 2.57602 9.875C2.95409 9.05175 3.46471 8.29282 4.08852 7.62698L2.68635 6.25879C1.14376 7.89025 0.559016 9.53344 0.547983 9.56574C0.478797 9.76672 0.478797 9.98426 0.547983 10.1852C0.569046 10.2498 2.86989 16.7257 10.5257 16.7257ZM10.5257 3.02427C8.6832 3.02427 7.16969 3.41183 5.90794 3.98435L2.20792 0.375L0.789702 1.75885L18.8434 19.375L20.2617 17.9912L16.9328 14.7429C19.5546 12.8335 20.4903 10.2263 20.5044 10.1852C20.5736 9.98426 20.5736 9.76672 20.5044 9.56574C20.4823 9.50017 18.1815 3.02427 10.5257 3.02427ZM15.5125 13.3571L13.2257 11.1257C13.4163 10.7441 13.5346 10.3242 13.5346 9.875C13.5346 8.26899 12.1716 6.93897 10.5257 6.93897C10.0653 6.93897 9.63503 7.05446 9.24487 7.24138L7.43147 5.47194C8.42696 5.13862 9.47326 4.97282 10.5257 4.98162C15.8927 4.98162 17.9718 8.74561 18.4753 9.875C18.1724 10.5522 17.3059 12.1671 15.5125 13.3571Z" fill="#697386"/>
</svg>
